<svg width="1619" height="850" viewBox="0 0 1619 850" fill="none" xmlns="http://www.w3.org/2000/svg">
<rect width="1619" height="850" fill="url(#paint0_linear_64_8)"/>
<g opacity="0.1">
<path d="M617.648 114.007C617.648 114.007 628.28 117.692 624.689 120.132C621.098 122.573 609.176 153.998 611.64 158.082C614.105 162.165 621.826 148.694 626.332 153.177C630.838 157.659 624.29 168.69 617.343 167.868C610.396 167.047 607.134 160.123 608.777 151.44C610.42 142.756 616.029 129.215 616.733 126.258C617.437 123.301 614.269 121.775 609.387 124.615C604.506 127.455 595.916 122.573 593.452 117.269C590.988 111.965 593.053 103 593.053 103C593.053 103 591.433 107.483 599.577 109.524C607.721 111.566 614.809 112.787 617.648 114.007Z" fill="white"/>
<path d="M15.6492 291.809C20.9698 289.107 26.1334 286.106 31.1153 282.821C38.6253 277.798 42.8498 280.216 41.7702 283.548C40.6906 286.881 47.1445 310.514 56.7668 323C66.3891 335.485 65.4973 321.239 72.7492 318.775C80.0011 316.311 83.9205 323.469 78.3583 331.777C72.7962 340.085 60.2168 337.574 58.5505 332.481C56.8842 327.388 45.1028 305.069 41.6059 299.625C38.109 294.18 35.5274 294.485 29.1908 300.798C26.4862 303.654 23.1141 305.792 19.378 307.021C15.6418 308.25 11.6588 308.531 7.78708 307.839C7.78708 307.839 20.7654 332.716 24.7317 340.695C28.6979 348.675 31.9836 358.766 37.8273 358.555C43.6711 358.344 50.2659 346.821 54.9128 353.861C59.5596 360.902 45.6895 372.895 38.2263 369.492C30.7632 366.089 26.1868 350.458 20.6481 339.663C15.1094 328.867 -0.919886 300.422 0.0423493 296.362C1.00458 292.302 8.4677 296.48 15.6492 291.809Z" fill="white"/>
<path d="M166.134 339.662C169.896 337.748 173.547 335.625 177.071 333.302C182.398 329.758 185.309 331.471 184.604 333.818C183.9 336.165 188.406 352.898 195.212 361.723C202.019 370.547 201.385 360.479 206.524 358.742C211.664 357.005 214.41 362.075 210.467 367.942C206.525 373.809 197.653 372.026 196.386 368.435C192.867 360.472 188.87 352.729 184.417 345.248C181.929 341.446 180.098 341.61 175.616 346.069C173.698 348.08 171.312 349.585 168.67 350.449C166.029 351.313 163.214 351.51 160.478 351.021C160.478 351.021 169.655 368.599 172.471 374.208C175.287 379.817 177.587 386.999 181.859 386.858C186.13 386.717 190.636 378.503 193.922 383.572C197.207 388.642 187.397 397.044 182.187 394.626C176.977 392.209 173.668 381.179 169.772 373.504C165.876 365.83 154.517 345.764 155.198 342.994C155.878 340.225 160.995 342.971 166.134 339.662Z" fill="white"/>
<path d="M701.843 176.382C705.586 174.469 709.221 172.354 712.733 170.045C718.061 166.478 720.971 168.191 720.267 170.538C719.563 172.885 724.069 189.618 730.875 198.466C737.681 207.314 737.047 197.199 742.187 195.462C747.326 193.725 750.072 198.818 746.129 204.662C742.187 210.506 733.315 208.745 732.048 205.155C728.529 197.192 724.532 189.448 720.079 181.967C717.591 178.165 715.761 178.33 711.278 182.789C709.381 184.781 707.023 186.276 704.411 187.139C701.8 188.003 699.015 188.21 696.305 187.741C696.305 187.741 705.505 205.319 708.297 210.928C711.09 216.537 713.414 223.719 717.685 223.578C721.956 223.437 726.462 215.223 729.748 220.292C733.034 225.362 723.224 233.763 718.014 231.346C712.803 228.929 709.494 217.898 705.599 210.224C701.703 202.55 690.344 182.46 691.024 179.714C691.705 176.968 696.774 179.691 701.843 176.382Z" fill="white"/>
<path d="M234.744 168.509C234.744 168.509 246.854 172.71 242.676 175.55C238.499 178.389 224.981 214.156 227.773 218.826C230.566 223.497 239.508 208.125 244.53 213.241C249.553 218.357 242.183 230.913 234.298 229.974C226.412 229.035 222.563 221.15 224.511 211.363C226.459 201.577 232.89 185.782 233.899 182.52C234.908 179.258 231.106 177.404 225.52 180.666C219.935 183.928 210.172 178.319 207.379 172.287C204.586 166.256 206.91 156 206.91 156C206.91 156 205.055 161.116 214.349 163.44C223.643 165.763 231.435 167.124 234.744 168.509Z" fill="white"/>
<path d="M636.736 673.509C636.736 673.509 648.822 677.71 644.645 680.55C640.467 683.389 626.949 719.156 629.742 723.803C632.535 728.45 641.477 713.101 646.499 718.217C651.521 723.334 644.152 735.913 636.267 734.974C628.381 734.035 624.532 726.126 626.503 716.363C628.475 706.6 634.882 690.782 635.891 687.52C636.9 684.258 633.098 682.404 627.513 685.666C621.927 688.928 612.164 683.319 609.371 677.287C606.578 671.256 608.902 661 608.902 661C608.902 661 607.048 666.116 616.341 668.44C625.635 670.763 633.474 672.124 636.736 673.509Z" fill="white"/>
<path d="M196.362 599.886C196.362 599.886 208.472 604.087 204.271 606.927C200.07 609.766 186.599 645.533 189.392 650.227C192.185 654.921 201.009 639.525 206.149 644.641C211.288 649.757 203.802 662.313 195.893 661.375C187.984 660.436 184.276 652.55 186.13 642.764C187.984 632.977 194.508 617.182 195.517 613.92C196.526 610.658 192.725 608.804 187.139 612.066C181.553 615.328 171.767 609.719 168.974 603.688C166.181 597.656 168.528 587.4 168.528 587.4C168.528 587.4 166.65 592.517 175.968 594.84C185.285 597.163 193.1 598.595 196.362 599.886Z" fill="white"/>
<path d="M737.808 406.9C743.864 403.845 749.748 400.461 755.433 396.761C764.023 391.011 768.717 393.757 767.59 397.583C766.464 401.408 773.716 428.303 784.676 442.573C795.636 456.842 794.65 440.531 802.911 437.738C811.172 434.945 815.655 443.136 809.295 452.57C802.935 462.005 788.618 459.165 786.741 453.368C784.863 447.571 771.392 422.131 767.426 415.982C763.46 409.833 760.385 410.115 753.345 417.32C750.259 420.565 746.415 422.994 742.159 424.386C737.903 425.779 733.368 426.093 728.96 425.299C728.96 425.299 743.652 453.556 748.158 462.592C752.664 471.627 756.419 483.221 763.108 482.986C769.796 482.751 777.189 469.515 782.587 477.682C787.985 485.849 772.049 499.391 763.554 495.519C755.058 491.646 749.801 473.833 743.511 461.512C737.221 449.191 718.916 416.78 720.042 412.227C721.169 407.674 729.641 412.227 737.808 406.9Z" fill="white"/>
<path d="M9.64192 581.322C12.8724 579.679 16.0067 577.853 19.0295 575.854C23.606 572.803 26.0702 574.281 25.5069 576.3C24.9436 578.318 28.7691 592.728 34.6129 600.285C40.4566 607.842 39.9404 599.205 44.3291 597.703C48.7178 596.201 51.135 600.59 47.732 605.612C44.329 610.635 36.7251 609.133 35.7159 606.058C32.682 599.21 29.2416 592.548 25.4131 586.11C23.3009 582.848 21.705 582.988 17.8561 586.837C16.2092 588.565 14.1593 589.858 11.8903 590.599C9.62119 591.341 7.20368 591.507 4.85423 591.085C4.85423 591.085 12.7398 606.199 15.1571 611.01C17.5744 615.821 19.5458 622.017 23.1131 621.876C26.6804 621.736 30.6701 614.695 33.4864 619.06C36.3027 623.425 27.8773 630.63 23.3478 628.448C18.8183 626.265 16.0254 616.878 12.6694 610.306C9.3133 603.735 -0.449784 586.462 0.136939 583.998C0.723666 581.533 5.27669 584.162 9.64192 581.322Z" fill="white"/>
</g>
<defs>
<linearGradient id="paint0_linear_64_8" x1="-120.919" y1="908" x2="1462.91" y2="87.8345" gradientUnits="userSpaceOnUse">
<stop stop-color="#FF9292"/>
<stop offset="1" stop-color="#DE5150"/>
</linearGradient>
</defs>
</svg>
